<svg id="color" enable-background="new 0 0 24 24" height="512" viewBox="0 0 24 24" width="512" xmlns="http://www.w3.org/2000/svg"><path d="m4.463 23.943c-.28-.116-.463-.39-.463-.693v-4.25h-1.25c-1.517 0-2.75-1.233-2.75-2.75v-13.5c0-1.517 1.233-2.75 2.75-2.75h18.5c1.517 0 2.75 1.233 2.75 2.75v13.5c0 1.517-1.233 2.75-2.75 2.75h-11.189l-4.78 4.78c-.22.22-.546.276-.818.163z" fill="#2196f3"/><path d="m12 0h-9.25c-1.517 0-2.75 1.233-2.75 2.75v13.5c0 1.517 1.233 2.75 2.75 2.75h1.25v4.25c0 .303.183.577.463.693.091.038.187.057.284.057h.007c.191-.001.382-.075.527-.22l4.78-4.78h1.939z" fill="#1d83d4"/><g fill="#fafafa"><path d="m8.5 12.75c-.17 0-.34-.057-.48-.174l-3-2.5c-.171-.142-.27-.353-.27-.576s.099-.434.27-.576l3-2.5c.318-.265.79-.224 1.056.096.266.318.223.791-.096 1.056l-2.308 1.924 2.309 1.924c.318.265.361.738.096 1.056-.149.178-.362.27-.577.27z"/><path d="m14.5 12.75c-.215 0-.428-.092-.576-.27-.266-.318-.223-.791.096-1.056l2.308-1.924-2.308-1.924c-.318-.265-.361-.738-.096-1.056.265-.32.738-.361 1.057-.096l3 2.5c.171.143.27.353.27.576s-.099.434-.27.576l-3 2.5c-.141.117-.311.174-.481.174z"/><path d="m10.294 13.721c-.398-.114-.629-.529-.515-.927l2-7c.113-.397.522-.63.927-.515.398.114.629.529.515.927l-2 7c-.113.397-.525.628-.927.515z"/></g><path d="m6.672 9.5h-1.922c0 .223.099.434.27.576l3 2.5c.14.117.31.174.48.174.215 0 .428-.092.576-.27.266-.318.223-.791-.096-1.056z" fill="#dadada"/><path d="m18.25 9.5h-1.922.001l-2.309 1.924c-.318.265-.361.738-.096 1.056.148.178.361.27.576.27.17 0 .34-.057.48-.174l3-2.5c.171-.142.27-.353.27-.576z" fill="#dadada"/><path d="m12.28 9.5h-1.559l-.941 3.294c-.114.398.116.813.515.927.069.019.139.029.207.029.328 0 .627-.215.72-.544z" fill="#dadada"/></svg>