<svg height="512" viewBox="0 0 128 128" width="512" xmlns="http://www.w3.org/2000/svg"><g><g><path d="m73.25 113.333h-18.5l4.75-27.875h9z" fill="#67b5bc"/><path d="m6.5 6.5h115v84.529h-115z" fill="#79d5dd"/><path d="m30.735-5.735h66.529v103h-66.529z" fill="#f0f0fb" transform="matrix(0 1 -1 0 109.765 -18.235)"/><path d="m71.9 109.5h-15.8a12 12 0 0 0 -12 12h39.8a12 12 0 0 0 -12-12z" fill="#79d5dd"/></g><g fill="#0f1336"><g><path d="m121.5 4.75h-25.375a1.75 1.75 0 0 0 0 3.5h23.625v81.029h-111.5v-81.029h69.562a1.75 1.75 0 0 0 0-3.5h-71.312a1.75 1.75 0 0 0 -1.75 1.75v84.529a1.749 1.749 0 0 0 1.75 1.75h49.976l-2.576 15.163a13.637 13.637 0 0 0 -3.273.941 1.75 1.75 0 1 0 1.4 3.21 10.187 10.187 0 0 1 4.079-.843h15.794a10.267 10.267 0 0 1 10.1 8.5h-36.007a10.085 10.085 0 0 1 .951-2.872 1.75 1.75 0 0 0 -3.123-1.581 13.615 13.615 0 0 0 -1.475 6.2 1.75 1.75 0 0 0 1.75 1.75h39.804a1.75 1.75 0 0 0 1.75-1.75 13.76 13.76 0 0 0 -11.549-13.557l-2.577-15.161h49.976a1.749 1.749 0 0 0 1.75-1.75v-84.529a1.75 1.75 0 0 0 -1.75-1.75zm-50.979 103h-13.042l2.549-14.971h7.944z"/><path d="m84.813 8.25h4.125a1.75 1.75 0 0 0 0-3.5h-4.125a1.75 1.75 0 0 0 0 3.5z"/><path d="m12.5 71.25a1.749 1.749 0 0 0 -1.75 1.75v6.029a1.749 1.749 0 0 0 1.75 1.75h103a1.749 1.749 0 0 0 1.75-1.75v-66.529a1.75 1.75 0 0 0 -1.75-1.75h-103a1.75 1.75 0 0 0 -1.75 1.75v49.75a1.75 1.75 0 0 0 3.5 0v-48h99.5v63.029h-99.5v-4.279a1.749 1.749 0 0 0 -1.75-1.75z"/></g><path d="m50.164 31.2a1.751 1.751 0 0 0 -2.475 0l-13.326 13.327a1.751 1.751 0 0 0 0 2.475l13.326 13.326a1.75 1.75 0 1 0 2.475-2.474l-12.089-12.089 12.089-12.089a1.749 1.749 0 0 0 0-2.476z"/><path d="m77.836 60.328a1.749 1.749 0 0 0 2.475 0l13.326-13.328a1.751 1.751 0 0 0 0-2.475l-13.326-13.325a1.75 1.75 0 1 0 -2.475 2.475l12.089 12.09-12.089 12.089a1.748 1.748 0 0 0 0 2.474z"/><path d="m53.78 71.057a1.751 1.751 0 0 0 1.607-1.057l20.437-47.08a1.75 1.75 0 0 0 -3.211-1.394l-20.437 47.083a1.751 1.751 0 0 0 1.6 2.448z"/><path d="m37 16.75h-11.167a1.75 1.75 0 0 0 0 3.5h11.167a1.75 1.75 0 0 0 0-3.5z"/></g></g></svg>